# xmcd
#
# Track frame offsets:
#	150
#	20753
#	38651
#	55256
#	85830
#	110014
#	125747
#	149320
#	173225
#	197436
#
# Disc length: 2848 seconds
#
# Revision: 1
# Processed by: cddbd v1.5.1PL2 Copyright (c) Steve Scherf et al.
# Submitted via: audiograbber 1.83.01
#
DISCID=890b1e0a
DTITLE=Ann Duggan - The Best Days of all - Bedrock Studios engineer Scott Gilbe
DTITLE=rt
DYEAR=2003
DGENRE=
TTITLE0=west coast travelling blues
TTITLE1=saint christopher
TTITLE2=cold hearted lover
TTITLE3=move a little closer
TTITLE4=bad time today
TTITLE5=love song
TTITLE6=whiskey bottle dont lie
TTITLE7=soul searching blues
TTITLE8=best days of all
TTITLE9=one more try
EXTD=Clarksdale records - 2003\n\nckd.43cd
EXTT0=
EXTT1=
EXTT2=
EXTT3=
EXTT4=
EXTT5=
EXTT6=
EXTT7=
EXTT8=
EXTT9=
PLAYORDER=
